<svg width="77" height="72" fill="none" xmlns="http://www.w3.org/2000/svg"><path d="M75.4742 24.928l-3.2192 2.9758H4.82365L1.52588 24.928v-7.1264c0-1.6252 1.31753-2.9428 2.94276-2.9428H72.5315c1.6252 0 2.9427 1.3176 2.9427 2.9428v7.1264z" fill="#FFBD54"/><path d="M72.5312 14.8588h-3.4956c1.6253 0 2.9428 1.3176 2.9428 2.9428v10.1022l3.4955-2.9758v-7.1264c0-1.6252-1.3174-2.9428-2.9427-2.9428z" fill="#D99830"/><path d="M75.4742 24.928H1.52588v42.877c0 1.6252 1.31753 2.9427 2.94276 2.9427H72.5315c1.6252 0 2.9427-1.3175 2.9427-2.9427V24.928z" fill="#F4FBFF"/><path d="M71.9787 24.928H1.52588v3.2334H68.2267c2.0722 0 3.752 1.6798 3.752 3.752v35.8917c0 1.6252-1.3175 2.9428-2.9427 2.9428h3.4955c1.6252 0 2.9427-1.3176 2.9427-2.9428V24.928h-3.4955z" fill="#DAF1F4"/><path d="M38.4999 6.54597c1.5015 0 2.7187-1.21719 2.7187-2.71868s-1.2172-2.71868-2.7187-2.71868-2.7187 1.21719-2.7187 2.71868 1.2172 2.71868 2.7187 2.71868z" fill="#365E7D"/><path d="M51.5321 18.7775H25.4682c-.6164 0-1.1159.4995-1.1159 1.1159 0 .6165.4995 1.116 1.1159 1.116h26.0639c.6164 0 1.1159-.4995 1.1159-1.116 0-.6164-.4996-1.1159-1.1159-1.1159zM11.9787 31.3819H7.45747c-.61643 0-1.11592.4995-1.11592 1.1159 0 .6165.49949 1.116 1.11592 1.116h4.52123c.6165 0 1.116-.4995 1.116-1.116 0-.6164-.4997-1.1159-1.116-1.1159zM21.573 31.3819h-4.5213c-.6164 0-1.1159.4995-1.1159 1.1159 0 .6165.4995 1.116 1.1159 1.116h4.5213c.6164 0 1.1159-.4995 1.1159-1.116 0-.6164-.4995-1.1159-1.1159-1.1159zM31.1667 31.3819h-4.5212c-.6165 0-1.116.4995-1.116 1.1159 0 .6165.4995 1.116 1.116 1.116h4.5212c.6165 0 1.1159-.4995 1.1159-1.116 0-.6164-.4996-1.1159-1.1159-1.1159zM40.7607 31.3819h-4.5212c-.6165 0-1.116.4995-1.116 1.1159 0 .6165.4995 1.116 1.116 1.116h4.5212c.6165 0 1.1159-.4995 1.1159-1.116 0-.6164-.4994-1.1159-1.1159-1.1159zM50.3547 31.3819h-4.5212c-.6165 0-1.116.4995-1.116 1.1159 0 .6165.4995 1.116 1.116 1.116h4.5212c.6165 0 1.1159-.4995 1.1159-1.116 0-.6164-.4996-1.1159-1.1159-1.1159zM59.9485 31.3819h-4.5213c-.6164 0-1.1159.4995-1.1159 1.1159 0 .6165.4995 1.116 1.1159 1.116h4.5213c.6164 0 1.1159-.4995 1.1159-1.116 0-.6164-.4995-1.1159-1.1159-1.1159zM69.5425 31.3819h-4.5213c-.6164 0-1.1159.4995-1.1159 1.1159 0 .6165.4995 1.116 1.1159 1.116h4.5213c.6164 0 1.1159-.4995 1.1159-1.116 0-.6164-.4997-1.1159-1.1159-1.1159zM11.9787 38.9519H7.45747c-.61643 0-1.11592.4995-1.11592 1.1159 0 .6164.49949 1.1159 1.11592 1.1159h4.52123c.6165 0 1.116-.4995 1.116-1.1159 0-.6164-.4997-1.1159-1.116-1.1159zM21.573 38.9519h-4.5213c-.6164 0-1.1159.4995-1.1159 1.1159 0 .6164.4995 1.1159 1.1159 1.1159h4.5213c.6164 0 1.1159-.4995 1.1159-1.1159 0-.6164-.4995-1.1159-1.1159-1.1159zM31.1667 38.9519h-4.5212c-.6165 0-1.116.4995-1.116 1.1159 0 .6164.4995 1.1159 1.116 1.1159h4.5212c.6165 0 1.1159-.4995 1.1159-1.1159 0-.6164-.4996-1.1159-1.1159-1.1159zM40.7607 38.9519h-4.5212c-.6165 0-1.116.4995-1.116 1.1159 0 .6164.4995 1.1159 1.116 1.1159h4.5212c.6165 0 1.1159-.4995 1.1159-1.1159 0-.6164-.4994-1.1159-1.1159-1.1159zM50.3547 38.9519h-4.5212c-.6165 0-1.116.4995-1.116 1.1159 0 .6164.4995 1.1159 1.116 1.1159h4.5212c.6165 0 1.1159-.4995 1.1159-1.1159 0-.6164-.4996-1.1159-1.1159-1.1159zM59.9485 38.9519h-4.5213c-.6164 0-1.1159.4995-1.1159 1.1159 0 .6164.4995 1.1159 1.1159 1.1159h4.5213c.6164 0 1.1159-.4995 1.1159-1.1159 0-.6164-.4995-1.1159-1.1159-1.1159zM69.5425 38.9519h-4.5213c-.6164 0-1.1159.4995-1.1159 1.1159 0 .6164.4995 1.1159 1.1159 1.1159h4.5213c.6164 0 1.1159-.4995 1.1159-1.1159 0-.6164-.4997-1.1159-1.1159-1.1159zM11.9787 46.5218H7.45747c-.61643 0-1.11592.4995-1.11592 1.116 0 .6164.49949 1.1159 1.11592 1.1159h4.52123c.6165 0 1.116-.4995 1.116-1.1159 0-.6165-.4997-1.116-1.116-1.116zM21.573 46.5218h-4.5213c-.6164 0-1.1159.4995-1.1159 1.116 0 .6164.4995 1.1159 1.1159 1.1159h4.5213c.6164 0 1.1159-.4995 1.1159-1.1159 0-.6165-.4995-1.116-1.1159-1.116zM31.1667 46.5218h-4.5212c-.6165 0-1.116.4995-1.116 1.116 0 .6164.4995 1.1159 1.116 1.1159h4.5212c.6165 0 1.1159-.4995 1.1159-1.1159 0-.6165-.4996-1.116-1.1159-1.116zM40.7607 46.5218h-4.5212c-.6165 0-1.116.4995-1.116 1.116 0 .6164.4995 1.1159 1.116 1.1159h4.5212c.6165 0 1.1159-.4995 1.1159-1.1159 0-.6165-.4994-1.116-1.1159-1.116zM50.3547 46.5218h-4.5212c-.6165 0-1.116.4995-1.116 1.116 0 .6164.4995 1.1159 1.116 1.1159h4.5212c.6165 0 1.1159-.4995 1.1159-1.1159 0-.6165-.4996-1.116-1.1159-1.116zM59.9485 46.5218h-4.5213c-.6164 0-1.1159.4995-1.1159 1.116 0 .6164.4995 1.1159 1.1159 1.1159h4.5213c.6164 0 1.1159-.4995 1.1159-1.1159 0-.6165-.4995-1.116-1.1159-1.116zM69.5425 46.5218h-4.5213c-.6164 0-1.1159.4995-1.1159 1.116 0 .6164.4995 1.1159 1.1159 1.1159h4.5213c.6164 0 1.1159-.4995 1.1159-1.1159 0-.6165-.4997-1.116-1.1159-1.116zM11.9787 54.0917H7.45747c-.61643 0-1.11592.4994-1.11592 1.1159 0 .6164.49949 1.1159 1.11592 1.1159h4.52123c.6165 0 1.116-.4995 1.116-1.1159 0-.6165-.4997-1.1159-1.116-1.1159zM21.573 54.0917h-4.5213c-.6164 0-1.1159.4994-1.1159 1.1159 0 .6164.4995 1.1159 1.1159 1.1159h4.5213c.6164 0 1.1159-.4995 1.1159-1.1159 0-.6165-.4995-1.1159-1.1159-1.1159zM31.1667 54.0917h-4.5212c-.6165 0-1.116.4994-1.116 1.1159 0 .6164.4995 1.1159 1.116 1.1159h4.5212c.6165 0 1.1159-.4995 1.1159-1.1159 0-.6165-.4996-1.1159-1.1159-1.1159zM40.7607 54.0917h-4.5212c-.6165 0-1.116.4994-1.116 1.1159 0 .6164.4995 1.1159 1.116 1.1159h4.5212c.6165 0 1.1159-.4995 1.1159-1.1159 0-.6165-.4994-1.1159-1.1159-1.1159zM50.3547 54.0917h-4.5212c-.6165 0-1.116.4994-1.116 1.1159 0 .6164.4995 1.1159 1.116 1.1159h4.5212c.6165 0 1.1159-.4995 1.1159-1.1159 0-.6165-.4996-1.1159-1.1159-1.1159zM59.9485 54.0917h-4.5213c-.6164 0-1.1159.4994-1.1159 1.1159 0 .6164.4995 1.1159 1.1159 1.1159h4.5213c.6164 0 1.1159-.4995 1.1159-1.1159 0-.6165-.4995-1.1159-1.1159-1.1159zM69.5425 54.0917h-4.5213c-.6164 0-1.1159.4994-1.1159 1.1159 0 .6164.4995 1.1159 1.1159 1.1159h4.5213c.6164 0 1.1159-.4995 1.1159-1.1159 0-.6165-.4997-1.1159-1.1159-1.1159zM11.9787 61.6616H7.45747c-.61643 0-1.11592.4995-1.11592 1.1159 0 .6165.49949 1.116 1.11592 1.116h4.52123c.6165 0 1.116-.4995 1.116-1.116 0-.6164-.4997-1.1159-1.116-1.1159zM21.573 61.6616h-4.5213c-.6164 0-1.1159.4995-1.1159 1.1159 0 .6165.4995 1.116 1.1159 1.116h4.5213c.6164 0 1.1159-.4995 1.1159-1.116 0-.6164-.4995-1.1159-1.1159-1.1159zM31.1667 61.6616h-4.5212c-.6165 0-1.116.4995-1.116 1.1159 0 .6165.4995 1.116 1.116 1.116h4.5212c.6165 0 1.1159-.4995 1.1159-1.116 0-.6164-.4996-1.1159-1.1159-1.1159z" fill="#000"/><path d="M72.5316 13.7429H67.987c-.1887-.1537 1.4319.6949-25.7448-12.86908-2.2832-1.13838-5.0941-1.1915-7.4842 0C7.56996 14.4434 9.20188 13.5892 9.01322 13.7429H4.46859c-2.23794 0-4.05868 1.8208-4.05868 4.0587V67.805c0 2.2379 1.82074 4.0586 4.05868 4.0586H72.5314c2.238 0 4.0586-1.8207 4.0586-4.0586v-5.1359c0-.6165-.4995-1.116-1.116-1.116-.6164 0-1.1159.4995-1.1159 1.116v5.1359c0 1.0074-.8195 1.8268-1.8267 1.8268H4.46859c-1.00745 0-1.82684-.8195-1.82684-1.8268V26.0439H74.3583v32.1634c0 .6164.4995 1.1159 1.1159 1.1159.6164 0 1.1159-.4995 1.1159-1.1159V17.8016c0-2.2379-1.8206-4.0587-4.0585-4.0587zM40.1028 3.82729c0 .88381-.719 1.60276-1.6028 1.60276s-1.6027-.71895-1.6027-1.60276c0-.82831.6316-1.51185 1.4384-1.59442a6.36406 6.36406 0 01.3287 0c.8069.08257 1.4384.76597 1.4384 1.59442zM2.64175 17.8016c0-1.0073.81954-1.8267 1.82684-1.8267H21.681c.6164 0 1.1159-.4995 1.1159-1.1159 0-.6164-.4995-1.1159-1.1159-1.1159h-7.7292L34.6895 3.40191C34.4352 5.69475 36.2386 7.6619 38.5 7.6619c2.2637 0 4.0645-1.96968 3.8105-4.25999L63.0482 13.7429H26.1426c-.6164 0-1.1159.4995-1.1159 1.1159 0 .6165.4995 1.116 1.1159 1.116h46.3888c1.0073 0 1.8267.8195 1.8267 1.8267v6.0104H2.64175v-6.0103z" fill="#000"/></svg>