<svg width="73" height="73" fill="none" xmlns="http://www.w3.org/2000/svg"><path d="M51.7559 71.9307H21.2441c-2.3623 0-4.2773-1.915-4.2773-4.2774V5.34668c0-2.36238 1.915-4.27734 4.2773-4.27734h30.5118c2.3623 0 4.2773 1.91496 4.2773 4.27734V67.6533c0 2.3624-1.915 4.2774-4.2773 4.2774z" fill="#EAF6FF"/><path d="M43.4692 49.1478c0 10.3078 8.4291 17.1137 12.3828 19.7388.1175-.3906.1814-.8044.1814-1.2333V33.2258c-7.197 1.7201-12.5642 8.2057-12.5642 15.922z" fill="#D8ECFE"/><path d="M51.7559 73H21.2441c-2.9482 0-5.3466-2.3985-5.3466-5.3467V5.34668C15.8975 2.39845 18.2959 0 21.2441 0h30.5118c2.9482 0 5.3466 2.39845 5.3466 5.34668V67.6533c0 2.9482-2.3984 5.3467-5.3466 5.3467zM21.2441 2.13867c-1.7689 0-3.208 1.43919-3.208 3.20801V67.6533c0 1.7688 1.4391 3.208 3.208 3.208h30.5118c1.7689 0 3.208-1.4392 3.208-3.208V5.34668c0-1.76882-1.4391-3.20801-3.208-3.20801H21.2441z" fill="#9E9797"/><path d="M21.2629 41.3344c-4.6855 0-8.9247-2.763-10.7929-7.0348L8.24109 29.203c-1.2899-2.9494-1.42906-6.2705-.39052-9.3163l1.27936-3.752c1.18367-3.4715 4.46097-5.8072 8.14807-5.8072h7.9698c3.6872 0 6.9644 2.3357 8.1481 5.8072l1.2793 3.752c1.0386 3.0458.8994 6.3669-.3905 9.3163l-2.2289 5.0966c-1.8682 4.2716-6.1074 7.0348-10.7929 7.0348z" fill="#FED2A4"/><path d="M34.6756 19.8866l-1.2793-3.7518c-1.0119-2.9677-3.5544-5.1038-6.5745-5.6617 1.0255.9453 1.8269 2.1442 2.2971 3.5231l1.2794 3.7518c1.0385 3.0459.8994 6.3669-.3905 9.3163l-2.229 5.0966c-1.8682 4.2718-6.1073 7.0348-10.7929 7.0348-1.0406 0-2.0592-.137-3.0347-.3959 2.0396 1.6077 4.6005 2.5346 7.3121 2.5346 4.6855 0 8.9247-2.763 10.7929-7.0348l2.2289-5.0966c1.2898-2.9494 1.4291-6.2706.3905-9.3164z" fill="#FFBD54"/><path d="M41.4563 23.5528c0 2.0967-2.6266 3.0698-3.9982 1.4771-1.243-1.4435-2.5198-3.1098-3.7475-5.0135a45.24339 45.24339 0 01-3.1252-5.7103c-1.2324-2.6961 1.9204-5.27178 4.3375-3.5409l5.4891 3.9306c.6558.4695 1.0443 1.2239 1.0443 2.0272v6.8298z" fill="#FFBD54"/><path d="M40.4125 14.6957l-2.4431-1.7496c.1534.3266.2369.6862.2369 1.0568v6.8299c0 1.3841-1.1446 2.278-2.3171 2.2678.5249.6818 1.05 1.3262 1.5693 1.9291 1.3716 1.5929 3.9982.6197 3.9982-1.4771v-6.8299c0-.8031-.3885-1.5574-1.0442-2.027z" fill="#C38325"/><path d="M1.06934 23.5528c0 2.0967 2.62657 3.0698 3.99817 1.4771 1.243-1.4435 2.51979-3.1098 3.74753-5.0135a45.23518 45.23518 0 003.12516-5.7103c1.2325-2.6961-1.9204-5.27178-4.33751-3.5409l-5.48911 3.9306c-.65572.4695-1.04424 1.2239-1.04424 2.0272v6.8298z" fill="#FFBD54"/><path d="M18.9695 27.6505h3.6974c.7556 0 1.2238.8176.838 1.4637l-1.8486 3.0955c-.3777.6323-1.2985.6323-1.6762 0l-1.8487-3.0955c-.3856-.6461.0826-1.4637.8381-1.4637zM40.8691 6.4518h-8.7385c-2.3624 0-4.2773-1.91496-4.2773-4.27734V1.06934h17.2931v1.10512c0 2.36238-1.9151 4.27734-4.2773 4.27734z" fill="#9E9797"/><path d="M71.9305 49.1478c0 9.4425-12.0922 17.1657-12.0922 17.1657s-12.0922-6.409-12.0922-17.1657c0-6.6783 5.4138-12.0922 12.0922-12.0922 6.6783 0 12.0922 5.414 12.0922 12.0922z" fill="#78C0DE"/><path d="M62.9928 37.4741c2.8352 2.2129 4.6604 5.6599 4.6604 9.5352 0 8.2223-9.1677 15.1401-11.5372 16.7908 2.0768 1.6405 3.7225 2.5135 3.7225 2.5135s12.0921-7.7233 12.0921-17.1656c0-5.5868-3.7896-10.2862-8.9378-11.6739z" fill="#61ADCD"/><path d="M59.8381 52.113c2.2944 0 4.1543-1.8599 4.1543-4.1543s-1.8599-4.1543-4.1543-4.1543c-2.2943 0-4.1543 1.8599-4.1543 4.1543s1.86 4.1543 4.1543 4.1543z" fill="#fff"/><path d="M42.124 47.1854c.4488.3798 1.1239.3269 1.507-.1256l.0092-.0109c.3814-.4508.3206-1.1201-.1302-1.5016-.451-.3815-1.1302-.3198-1.5118.131-.3812.4509-.325 1.1257.1258 1.5071zm.4043-11.7094c.3626-.4662.2786-1.1379-.1874-1.5005l-.0113-.0088c-.4662-.3627-1.1381-.2789-1.5005.1875-.3626.4662-.2786 1.1379.1875 1.5005l.0113.0088c.4628.3603 1.1357.2814 1.5004-.1875zm.444 29.4378c.5954 0 1.0836-.4726 1.0836-1.0693 0-.5907-.4788-1.0693-1.0693-1.0693h-.0143c-.5905 0-1.0693.4786-1.0693 1.0693 0 .5907.4788 1.0693 1.0693 1.0693zm4.2916 0c.5954 0 1.0836-.4726 1.0836-1.0693 0-.5907-.4787-1.0693-1.0693-1.0693h-.0143c-.5905 0-1.0693.4786-1.0693 1.0693 0 .5907.4788 1.0693 1.0693 1.0693zM24.6411 21.4284c.4675-.1861.9595-.2824 1.4618-.2866.5246-.0052 1.04.0921 1.5285.2866.5362.2132 1.1678-.0428 1.3888-.5982.2184-.5487-.0495-1.1705-.5981-1.389-.7467-.2971-1.5323-.4465-2.3367-.438-.7685.0065-1.5205.1539-2.2348.438-.5488.2183-.8167.8401-.5984 1.3889.2183.5486.8402.817 1.3889.5983zm-6.7564 0c.1298.0514.2635.0759.3951.0759.425 0 .8271-.2552.9939-.6742.2184-.5488-.0495-1.1706-.5981-1.389-.7467-.2971-1.5324-.4466-2.3367-.438-.7685.0064-1.5205.1538-2.2348.438-.5488.2183-.8167.8401-.5984 1.3889.2182.5487.8401.8169 1.3889.5982.4675-.1861.9595-.2823 1.4618-.2866.5253-.005 1.0397.0924 1.5283.2868zm8.026 12.886c0-.5907-.4788-1.0693-1.0693-1.0693-.5906 0-1.0693.4786-1.0693 1.0693 0 .5133-.4228.9306-.9423.9306-.5196 0-.9423-.4174-.9423-.9306v-.8607c.2763-.1693.5128-.4048.6868-.6959l1.8486-3.0954c.3803-.6368.3888-1.402.0228-2.0469-.3621-.638-1.0436-1.0344-1.7789-1.0344h-3.6974c-.7351 0-1.4167.3964-1.7789 1.0344-.366.6449-.3576 1.4103.0228 2.0469l1.8487 3.0954c.1739.2911.4105.5266.6868.6959v.8607c0 .5133-.4228.9306-.9423.9306-.5197 0-.9423-.4174-.9423-.9306 0-.5907-.4788-1.0693-1.0694-1.0693-.5905 0-1.0693.4786-1.0693 1.0693 0 1.6924 1.3822 3.0693 3.081 3.0693.7683 0 1.4714-.2823 2.0116-.7475.5402.465 1.2433.7475 2.0117.7475 1.6988 0 3.0809-1.3769 3.0809-3.0693zm-6.7694-5.5946h3.3534l-1.6767 2.8074-1.6767-2.8074zm13.8943 6.0087l2.2284-5.0969c.5918-1.3525.9614-2.782 1.1033-4.236.0935.1108.1863.2223.2808.3319.6506.7557 1.5668 1.1632 2.5167 1.1632.3936 0 .7931-.07 1.1818-.2143 1.3239-.4915 2.1793-1.7175 2.1793-3.1236v-6.83c0-1.1451-.5575-2.228-1.4911-2.8964l-5.4891-3.93062c-1.4886-1.06592-3.4377-1.00076-4.8501.16282-.199.164-.3762.3439-.5356.5345-1.4813-.86671-3.1879-1.33536-4.9126-1.33536h-7.2113V5.34668c0-1.76882 1.4391-3.20801 3.208-3.20801h5.5399v.03579c0 2.94823 2.3985 5.34668 5.3467 5.34668h8.7385c2.9482 0 5.3466-2.39845 5.3466-5.34668v-.03579h5.5401c1.7689 0 3.208 1.43919 3.208 3.20801V33.3904c0 .5907.4787 1.0693 1.0693 1.0693.5906 0 1.0693-.4786 1.0693-1.0693V5.34668C57.1025 2.39845 54.7041 0 51.7559 0H21.2441c-2.9482 0-5.3466 2.39845-5.3466 5.34668V9.3584c-1.2442.18022-2.4487.59997-3.5323 1.234-.1592-.1903-.3363-.3701-.5352-.5339-1.4122-1.16348-3.36129-1.22878-4.85009-.16287L1.49108 13.8264C.55748 14.4948 0 15.5777 0 16.7228v6.83c0 1.4061.85547 2.6321 2.17931 3.1236.38881.1443.78803.2143 1.18197.2143.94971 0 1.86606-.4075 2.51665-1.163.09438-.1097.1872-.221.28059-.3318a13.95058 13.95058 0 001.1027 4.2354l2.22864 5.0975c2.04034 4.6625 6.66144 7.6754 11.77284 7.6754 5.113 0 9.7341-3.013 11.7729-7.6757zM28.9227 2.13867h15.1545v.03579c0 1.76882-1.4391 3.20801-3.208 3.20801h-8.7385c-1.769 0-3.208-1.43919-3.208-3.20801v-.03579zm3.133 9.57043c.303-.2497.7177-.4377 1.1767-.4377.3409 0 .7062.1039 1.0683.3631l5.4891 3.9306c.3743.2679.5976.7008.5976 1.1577v6.83c0 .7676-.6007 1.0502-.7849 1.1186-.1851.0688-.8284.2473-1.3337-.3394-1.327-1.5409-2.5581-3.1878-3.6591-4.8952-1.1458-1.7768-2.1723-3.6525-3.0513-5.5754-.4268-.9333-.023-1.7237.4973-2.1523zM4.25724 24.3321c-.5053.5866-1.14875.4081-1.33368.3393-.18421-.0683-.78489-.351-.78489-1.1186v-6.83c0-.4571.22328-.8898.59755-1.1577l5.48911-3.9306c.36215-.2592.72744-.3631 1.06834-.3631.45896 0 .87353.188 1.17673.4377.5201.4286.924 1.219.4973 2.1523-.8787 1.9224-1.90543 3.7983-3.05133 5.5754-1.10099 1.7073-2.33216 3.3543-3.65913 4.8953zm7.19206 9.5395l-2.22863-5.0972c-.8452-1.9328-1.15503-4.0486-.90395-6.136.48449-.6697.95114-1.3513 1.39699-2.0427 1.20149-1.8631 2.27779-3.8298 3.19919-5.8453.3253-.7116.4284-1.4667.3295-2.1881 1.2002-.7553 2.6093-1.1662 4.0354-1.1662h7.9701c1.4256 0 2.8349.4114 4.0358 1.167-.0987.7213.0044 1.476.3295 2.1873.9216 2.0159 1.9979 3.9827 3.1992 5.8453.4461.6916.913 1.3736 1.3977 2.0436.2499 2.0886-.0605 4.204-.9056 6.1351l-2.2283 5.097c-1.6984 3.8841-5.5504 6.3939-9.8135 6.3939-4.2618.0002-8.1139-2.5096-9.8134-6.3937zm33.0473 5.3951c.5604-.1867.8631-.7924.6764-1.3526l-.0128-.0369c-.1998-.5558-.814-.8499-1.3696-.6498-.5558.1996-.8462.8072-.6465 1.3631.2021.5623.8046.8589 1.3525.6762zM29.0511 63.5512c-.104.5813.2828 1.1371.8641 1.2411.5855.105 1.1711-.2865 1.2605-.8946.0851-.5793-.3112-1.1183-.8874-1.2112-.58-.1004-1.1332.2847-1.2372.8647zm16.5223-20.9165l.0037-.0296c.069-.5865-.3505-1.1186-.937-1.1876-.5859-.068-1.1178.3501-1.1868.9365-.0775.5854.3343 1.1229.9197 1.2005.5738.0761 1.1235-.3307 1.2004-.9198zM25.345 54.3491c.1919-.5587-.1068-1.1623-.6653-1.3544-.5586-.192-1.1686.1099-1.3605.6684-.1943.5577.1003 1.1673.6579 1.3616.5441.1897 1.166-.0936 1.3617-.6578l.0062-.0178zm-1.4602 2.8434c-.5719.1473-.9162.7299-.7689 1.3017.1186.4895.5562.8177 1.0384.8177.6801 0 1.2056-.6591 1.0401-1.3215-.0013-.005-.006-.0237-.0073-.0287-.1472-.5716-.7301-.916-1.3023-.7692zm35.9537-21.2062c-7.2573 0-13.1616 5.9042-13.1616 13.1615 0 4.6933 2.2024 9.3208 6.369 13.3824.6497.6333 1.2978 1.2052 1.9178 1.7155v3.4076c0 1.7688-1.439 3.208-3.208 3.208H21.2441c-1.7689 0-3.208-1.4392-3.208-3.208V44.8977c0-.5907-.4787-1.0693-1.0693-1.0693-.5906 0-1.0693.4786-1.0693 1.0693v22.7556c0 2.9482 2.3984 5.3467 5.3466 5.3467h30.5118c2.9482 0 5.3466-2.3985 5.3466-5.3467v-1.7915c1.2791.8851 2.1671 1.3605 2.2352 1.3966.157.0831.3291.1245.5008.1245.2006 0 .4008-.0565.5757-.1681C60.9281 66.8864 73 59.0621 73 49.1477c0-7.2571-5.9042-13.1614-13.1615-13.1614zm-.0459 29.0658c-2.2906-1.3824-10.9768-7.201-10.9768-15.9043 0-6.0779 4.9447-11.0228 11.0228-11.0228s11.0227 4.9449 11.0227 11.0228c0 7.6495-8.7965 14.3114-11.0687 15.9043zM27.4537 51.405c.4662-.3626.5502-1.0344.1875-1.5005-.3626-.4664-1.0343-.5502-1.5005-.1875l-.0113.0088c-.4662.3626-.5502 1.0344-.1875 1.5005.3648.469 1.0379.5478 1.5005.1875l.0113-.0088zm32.3848-8.6699c-2.8804 0-5.2237 2.3434-5.2237 5.2236 0 2.8804 2.3434 5.2238 5.2237 5.2238 2.8802 0 5.2236-2.3434 5.2236-5.2238.0001-2.8802-2.3433-5.2236-5.2236-5.2236zm0 8.3087c-1.7011 0-3.085-1.384-3.085-3.0851 0-1.7011 1.384-3.0849 3.085-3.0849 1.7009 0 3.0849 1.3838 3.0849 3.0849 0 1.7011-1.3838 3.0851-3.0849 3.0851zM27.0914 62.6185c.4091-.4261.3952-1.103-.0308-1.5119l-.0269-.0254c-.4348-.4001-1.1141-.3746-1.5141.06-.3998.4347-.3747 1.1081.0599 1.5081.4342.3993 1.1026.3955 1.5119-.0308zm4.7109-13.6875c-.0511-.5859-.5659-1.0202-1.1528-.9726-.5835.041-1.0269.544-.9924 1.1295.0335.5682.5047 1.0066 1.0665 1.0066.0211 0 .0423-.0005.0637-.0018.6043-.0355 1.0685-.5502 1.015-1.1617zm8.5047-.5591c-.1737-.5645-.7768-.8798-1.3411-.7062-.5652.1713-.8846.7684-.7133 1.3336.1732.5714.781.8818 1.3335.7133l.018-.0056c.5643-.1738.8765-.7706.7029-1.3351zm-1.612 16.5419c.5905 0 1.0693-.4786 1.0693-1.0693 0-.5907-.4788-1.0693-1.0693-1.0693h-.0143c-.5905 0-1.0693.4786-1.0693 1.0693 0 .594.4878 1.0693 1.0836 1.0693zm.1106-31.5564c.0344-.5851-.4083-1.0878-.9912-1.1293-.5865-.0499-1.104.3842-1.1557.9714-.0519.5882.383 1.1072.9712 1.1591.0104.001.035.0029.0454.0034.583.039 1.0957-.4133 1.1303-1.0046zm-4.4165 29.4178c-.5905 0-1.0622.4786-1.0622 1.0693 0 .5907.4859 1.0693 1.0765 1.0693.5905 0 1.0693-.4786 1.0693-1.0693 0-.5907-.4788-1.0693-1.0693-1.0693h-.0143zm1.7097-13.7764c0-.5907-.4788-1.0693-1.0694-1.0693h-.0142c-.5906 0-1.0693.4786-1.0693 1.0693 0 .594.4877 1.0694 1.0835 1.0694.5906 0 1.0694-.4787 1.0694-1.0694z" fill="#000"/></svg>