<svg width="46" height="73" fill="none" xmlns="http://www.w3.org/2000/svg"><path d="M37.8584 71.4307H7.34668c-2.08623 0-3.77734-1.6911-3.77734-3.7774V5.34668c0-2.08623 1.69111-3.77734 3.77734-3.77734H37.8584c2.0862 0 3.7773 1.69111 3.7773 3.77734V67.6533c0 2.0863-1.6911 3.7774-3.7773 3.7774z" fill="#EAF6FF" stroke="#000"/><path d="M37.8584 72.5H7.34668C4.67459 72.5 2.5 70.3254 2.5 67.6533V5.34668C2.5 2.67459 4.67459.5 7.34668.5H37.8584c2.6721 0 4.8467 2.17459 4.8467 4.84668V67.6533c0 2.6721-2.1746 4.8467-4.8467 4.8467zM7.34668 1.63867c-2.04512 0-3.70801 1.66306-3.70801 3.70801V67.6533c0 2.045 1.66289 3.708 3.70801 3.708H37.8584c2.0451 0 3.708-1.663 3.708-3.708V5.34668c0-2.04495-1.6629-3.70801-3.708-3.70801H7.34668z" fill="#9E9797" stroke="#000"/><path d="M26.9716 5.9518h-8.7384c-2.0863 0-3.7774-1.69111-3.7774-3.77734v-.60512H30.749v.60512c0 2.08622-1.6913 3.77734-3.7774 3.77734z" fill="#9E9797" stroke="#000"/><path d="M31.6357 28.9629c7.5329.0155 13.6873 6.1803 13.6906 13.7133.0015 3.3667-1.21 6.4503-3.221 8.8382-.8523 1.0119-1.0251 2.4322-.4417 3.6196l1.4934 3.0401c.1226.2496-.1231.5209-.3837.4234l-6.3492-2.3765c-.6-.2246-1.2518-.2722-1.8777-.1353-1.0306.2252-2.1045.3349-3.2076.3137-7.4494-.1428-13.4622-6.2867-13.4513-13.7374.0108-7.5774 6.1647-13.7148 13.7482-13.6991z" fill="#FFBD54"/><path d="M41.6635 55.134c-.5833-1.1874-.4106-2.6077.4418-3.6196 2.0111-2.3879 3.2226-5.4715 3.2211-8.8382-.0033-7.5329-6.1577-13.6978-13.6906-13.7133-.5046-.0011-1.0028.0259-1.4935.078 6.8657.7346 12.256 6.5857 12.2591 13.6353.0015 3.3667-1.2099 6.4503-3.2211 8.8382-.8522 1.0119-1.025 2.4322-.4417 3.6196l1.1757 2.3933 2.859 1.0701c.2605.0975.5062-.1737.3836-.4234l-1.4934-3.04z" fill="#FFD064"/><path d="M14.3645 22.6738C6.83153 22.6894.67715 28.8542.67383 36.3872c-.00153 3.3667 1.21001 6.4502 3.22107 8.8382.85226 1.0119 1.02503 2.4321.44167 3.6196l-1.49338 3.04c-.12263.2497.12309.5209.38363.4235l6.34925-2.3766c.59993-.2245 1.25183-.2721 1.87763-.1353 1.0307.2252 2.1046.3349 3.2077.3137 7.4494-.1427 13.4622-6.2867 13.4513-13.7374-.0109-7.5773-6.1646-13.7147-13.7482-13.6991z" fill="#78C0DE"/><path d="M14.3648 22.6738c-.5202.0011-1.0335.0325-1.539.0907 6.8277.7813 12.1325 6.5738 12.1429 13.6084.0102 7.01-5.3119 12.8624-12.1455 13.6493.6021.0688 1.2155.1 1.8387.0881 7.4494-.1429 13.4622-6.2868 13.4513-13.7375-.0111-7.5772-6.1648-13.7146-13.7484-13.699z" fill="#80B4FB"/><path d="M13.8445 33.6734l-3.5887-3.5887c-.1605-.1605-.42058-.1605-.58105 0l-.80697.8069c-1.20489 1.2049-1.20489 3.1585 0 4.3634l6.66362 6.6636c1.2049 1.2049 3.1584 1.2049 4.3633 0l.807-.807c.1605-.1604.1605-.4205 0-.581l-3.5887-3.5887c-.1605-.1605-.4206-.1605-.581 0l-.7234.7233c-.3456.3456-.9058.3456-1.2515 0l-1.436-1.436c-.3457-.3456-.3457-.9058 0-1.2515l.7233-.7233c.1605-.1604.1605-.4206.0001-.581z" fill="#26457D"/><path d="M28.6782 42.1569v1.051c0 .3723.3016.6739.6738.6739.3723 0 .6739-.3016.6739-.6739v-1.051c0-.3723-.3016-.6739-.6739-.6739-.3722 0-.6738.3016-.6738.6739zM33.1873 42.1569v1.051c0 .3723.3016.6739.6738.6739s.6738-.3016.6738-.6739v-1.051c0-.3723-.3016-.6739-.6738-.6739s-.6738.3016-.6738.6739zM37.6963 42.1569v1.051c0 .3723.3016.6739.6738.6739s.6738-.3016.6738-.6739v-1.051c0-.3723-.3016-.6739-.6738-.6739s-.6738.3016-.6738.6739z" fill="#000"/><path d="M31.6368 28.289h-.0308c-1.6469 0-3.2564.2759-4.7932.8194-.618-1.0494-1.3735-2.0272-2.2589-2.9097C21.8366 23.4903 18.2294 22 14.3935 22h-.0305c-1.6099.0033-3.194.2747-4.70843.8066-.35111.1233-.53582.5079-.41247.8591.12336.3512.5078.5361.8591.4125 1.3714-.4817 2.8062-.7275 4.2647-.7305h.0276c3.4765 0 6.7464 1.351 9.2092 3.8056 2.3757 2.3678 3.831 5.6111 3.8363 9.2206.005 3.4262-1.3217 6.671-3.7357 9.1368-2.4421 2.4944-5.6741 3.861-9.0546 3.9258-1.0283.0208-2.0552-.0806-3.0509-.2983-.7533-.1647-1.5339-.1084-2.25777.1626L3.855 51.3539l1.08648-2.2118c.70122-1.4275.49261-3.1351-.53116-4.3507-1.97637-2.3468-3.06411-5.3313-3.06267-8.404.00198-4.5731 2.46611-8.8743 6.43072-11.225.32002-.1898.42568-.6031.23593-.9232-.18975-.3201-.60312-.4257-.92323-.236-2.11545 1.2543-3.88986 3.039-5.13149 5.1612C.67877 31.3535.00117 33.851 0 36.3869c-.00153 3.39 1.19869 6.6831 3.37955 9.2725.67958.8068.81793 1.9407.35237 2.8884l-1.49338 3.0401c-.17843.3631-.11806.7916.15354 1.0914.27313.3013.6944.4011 1.07111.2601l6.34933-2.3766c.48038-.1797.99818-.2172 1.49748-.108 1.0986.2401 2.2307.3502 3.3645.3291 1.5645-.03 3.089-.3117 4.5277-.8236 2.5393 4.307 7.1302 7.0171 12.1231 7.1127 1.1346.0215 2.2657-.0891 3.3645-.3292.4994-.109 1.0172-.0718 1.4977.1082l6.3493 2.3765c.8297.3101 1.6163-.5539 1.2245-1.3516l-1.4933-3.04c-.4512-.9186-.3304-2.0299.308-2.8312.2319-.291.1839-.715-.1072-.9468-.291-.2317-.7151-.1839-.9469.1071-.9614 1.207-1.1433 2.881-.4634 4.265l1.0865 2.2118-5.4849-2.0531c-.7238-.271-1.5045-.3272-2.2579-.1627-.996.2178-2.0226.3189-3.0509.2983-4.4598-.0854-8.5662-2.4744-10.8879-6.2832 1.5474-.7244 2.9702-1.7296 4.203-2.9889 2.6626-2.7196 4.1259-6.3 4.1203-10.0815-.0031-2.1278-.4655-4.1842-1.3389-6.057 1.3362-.4498 2.7313-.6782 4.1584-.6782h.0279c7.1751.0148 13.0151 5.8644 13.0182 13.0398.001 2.2258-.5685 4.4232-1.6469 6.3547-.1814.325-.065.7355.2599.9169.3244.1809.7351.0656.9169-.26 1.1903-2.1319 1.8189-4.5568 1.8178-7.0122-.0036-7.9164-6.4469-14.3703-14.3632-14.3867z" fill="#000"/><path d="M8.39167 35.7315l3.64563 3.6456c.2632.2631.6898.2631.9529 0 .2632-.2632.2632-.6898 0-.953l-3.64556-3.6456c-.9403-.9402-.9403-2.4701 0-3.4103l.62091-.621 3.21685 3.2168-.5374.5373c-.6077.6078-.6077 1.5967 0 2.2045l1.436 1.4359c.608.6078 1.5968.6077 2.2046 0l.5373-.5373 3.2167 3.2168-.621.621c-.9402.9403-2.4701.9403-3.4104 0l-1.1105-1.1106c-.2632-.2631-.6898-.2631-.953 0-.2631.2632-.2631.6898 0 .953l1.1106 1.1105c.7328.7328 1.6955 1.0993 2.6582 1.0993.9627 0 1.9253-.3665 2.6582-1.0993l.8069-.8069c.2048-.2049.3177-.4772.3177-.767s-.113-.5622-.3177-.767l-3.5887-3.5887c-.423-.4229-1.1111-.4229-1.534.0001l-.7233.7233c-.0822.0823-.216.0825-.2985 0l-1.436-1.436c-.0824-.0823-.0824-.2162 0-.2985l.7233-.7233c.4229-.423.4229-1.1111 0-1.5341l-3.5886-3.5884c-.2048-.2049-.4772-.3179-.76707-.3179-.28974 0-.56206.1129-.76699.3177l-.80689.8069c-1.4658 1.4656-1.4658 3.8505-.00018 5.3162z" fill="#000"/></svg>