<svg width="14" height="13" fill="none" xmlns="http://www.w3.org/2000/svg"><path d="M13.7103 6.39349L7.3493.14237A.49369.49369 0 007.18921.037.50032.50032 0 007.00029 0a.50028.50028 0 00-.18892.037.49369.49369 0 00-.16009.10537L.29033 6.39349C.105 6.57574 0 6.8233 0 7.08148c0 .53611.44321.97199.98835.97199h.67022V12.514c0 .2688.22084.486.49418.486h3.85919V9.59803h1.72961V13h4.10625c.2734 0 .4942-.2172.4942-.486V8.05347h.6702c.2626 0 .5143-.10175.6996-.28552a.96175.96175 0 00-.0015-1.37446z" fill="#FFBD54"/></svg>