<svg width="6" height="7" fill="none" xmlns="http://www.w3.org/2000/svg"><path d="M4.84262 4.81004c.20413-.25739.38796-.58906.41202-.91962.05371-.72639-.75402-1.47019-1.3408-1.90289-.72901-.53763-1.60596-.9792-2.44672-1.2965l-.47702.47701c-1.0161 1.19492-1.0085 4.17208.01215 5.3461l.41872.4832c1.16402-.43368 2.6582-1.21214 3.42165-2.1873zm-3.14026-1.3395c-.06885-.21902.0524-.46726.2877-.53874.22291-.07408.49424.0626.54933.32887.02207.10785.0012.22419-.06439.32438-.21143.30871-.66989.22595-.77264-.11451z" fill="#78C0DE"/></svg>